<?xml version="1.0" encoding="UTF-8"?><svg id="a" xmlns="http://www.w3.org/2000/svg" viewBox="0 0 250 250"><rect width="250" height="49.55" fill="#d9d9d9"/><rect x="14.4" y="14.25" width="109" height="20.96" fill="#fff"/><rect x="136.29" y="14.25" width="36.75" height="20.96" fill="#bfbfbf"/><rect x="14.4" y="188.53" width="79.87" height="16.04" fill="#f2f2f2"/><rect x="14.4" y="219.64" width="79.87" height="16.04" fill="#f2f2f2"/><rect x="14.4" y="157.42" width="79.87" height="16.04" fill="#f2f2f2"/><rect x="14.4" y="126.31" width="79.87" height="16.04" fill="#f2f2f2"/><rect x="14.4" y="95.21" width="79.87" height="16.04" fill="#f2f2f2"/><rect x="14.4" y="64.1" width="79.87" height="16.04" fill="#f2f2f2"/><rect x="108.73" y="49.62" width="141.27" height="200.38" fill="#f7f7f7"/><g id="b" transform="translate(-937.52206,293.97103)"><g id="c"><g id="d" transform="matrix(0.7893984,0.59131548,-0.74511602,0.600473,1758.5753,-1003.0152)"><g id="e"><g id="f"><g id="g" transform="matrix(0.65653372,-0.64652124,0.81468074,0.86309737,38.595496,1142.8025)"><path id="h" d="M250,68.99s-6.97,.45-7.42,.45-1.01-.9-2.14,.45c-1.13,1.35-2.7,2.14-4.95,2.26-2.25,.11-2.36-.23-4.5,.56-2.14,.79-3.49-.23-3.04,1.58,.45,1.8,1.01,2.48,1.01,2.82s-1.01,2.59-2.25,1.24c-1.24-1.35-3.49-6.66-2.48-3.05,1.01,3.61,3.26,4.85,1.13,5.41-2.14,.56-1.91-.23-2.25-.45-.34-.23,0-1.8-.11-2.71-.11-.9-.34-1.47-.79-1.92-.45-.45-.34-1.13-1.24-1.35-.9-.23-.11-.68-1.58-.68s-2.7-.9-2.36,1.13c.34,2.03,.67,.68,1.57,2.59s2.59,.56,1.35,1.92c-1.24,1.35-4.5,.9-5.29,.34-.79-.56-.56,.23-2.03-.79-1.46-1.02-1.01-1.81-2.7-1.02s-2.25,2.26-2.93,1.69-2.25,.79-2.81,.11c-.56-.68-2.81-.68-3.26,0-.45,.68-1.8,.56-3.71,1.47-1.91,.9-1.35,.11-3.71,2.03-2.36,1.92-3.71,3.5-4.5,2.26-.79-1.24-5.07-3.38-3.38-3.72,1.69-.34,2.48-1.01,3.38-.23s2.36,.56,2.59,0c.23-.56,1.24-1.13-.11-1.8-1.35-.68-1.46-.23-3.6-1.02-2.14-.79,0-.56-2.93-1.02-2.93-.45-4.16-.68-4.95-.9-.79-.23-1.91,0-3.04-.11-1.13-.11-1.91-.34-2.93-.23-1.01,.11-1.57-.11-2.93,.9s-2.36,1.47-3.26,2.26-3.26,2.37-3.94,2.93c-.68,.56-3.04,2.37-3.26,3.05s.23,1.24-.68,1.69c-.9,.45-1.8,.45-2.48,.56s0-1.02-.68,.11c-.68,1.13-.45,5.19,.11,4.62s.23-2.37,2.7-.68c2.48,1.69,4.05,1.47,3.94,3.05-.11,1.58,1.69,1.47,1.91,1.81,.23,.34,1.35-.45,1.35-.45,0,0,2.48-1.58,2.48-2.37s1.58-2.59,1.58-2.59c0,0-1.13-.56-1.13-1.69s.34-1.47,.56-2.6c.23-1.13-1.24,0,2.14-2.14,3.38-2.14,3.6-.68,3.6-.68,0,0,.45,.45-.11,1.13-.56,.68-1.58,2.48-1.8,2.71-.23,.23,1.01,2.03,1.57,2.03s1.69-.45,2.36-.34c.68,.11,1.8-.34,2.14-.11,.34,.23,1.13,.9,.56,1.47-.56,.56-1.8,1.24-2.7,1.02-.9-.23-2.25-1.81-1.46,.45,.79,2.26-.11,2.82-.79,2.71-.67-.11-2.14-1.24-1.91,.45,.23,1.69-1.46,2.82-1.8,2.82s-1.01-.11-1.01-.11c0,0-1.01-.11-1.58-.11s-1.69,.56-2.03,1.02c-.34,.45-.79,.11-1.35,.11s0-.68-1.13-.9c-1.12-.23-1.8-.45-2.48,0-.68,.45-1.69,.68-2.14,.34-.45-.34,.23-1.13-.68-.68-.9,.45-1.58,1.69-1.91,1.81-.34,.11,1.01,0-.34,.11-1.35,.11-1.91,.45-2.59,.68-.68,.23,.23,1.58-1.01,2.03s-.34-.56-1.58,.45c-1.24,1.02-1.46,1.92-1.91,2.03-.45,.11-.34,.34-1.35,.45s-.9,.23-1.46,.34c-.56,.11,.11,.34-1.12,.11-1.24-.23-2.14,.23-1.91,.68s4.39,1.69,1.24,1.58-2.14,.45-1.46,.9c.68,.45,1.01,.9,1.35,1.02,.34,.11,.9,1.47,.9,1.47,0,0,.9-.11,.34,.68s.23,1.02-.34,2.03c-.56,1.02-.56,.34-1.01,.56-.45,.23-1.13,1.02-2.36,.34-1.24-.68-2.14-1.02-3.6-1.13-1.46-.11-.45-.34-1.46,.45-1.01,.79-1.24,1.69-1.12,2.71,.11,1.01,.23,2.37-.11,3.05-.34,.68-.34,1.35-.11,2.37,.23,1.01,.9,1.47,.9,1.47,0,0,1.58,.23,1.91,.34,.34,.11,1.01-.23,1.91,.34,.9,.56,1.8,.79,2.36,.11,.56-.68,2.81-1.47,3.49-2.14,.68-.68,1.12-.9,.79-1.58s.68-2.37,1.24-2.71,1.8-.68,1.8-.68l1.35-2.03s1.13-1.24,1.69-1.13c.56,.11,3.71,1.24,3.49-.23-.23-1.47,.23-1.92,.56-1.35s1.24,.34,1.24,.34c0,0,.45-.23,.79,.11,.34,.34,.79,1.81,1.46,2.14,.68,.34,1.24,.68,1.69,.9,.45,.23,.9,0,1.8,.79,.9,.79,1.8,1.24,1.91,1.58,.11,.34,.9,1.13,.9,1.13,0,0,.79,.23,.56,.68-.23,.45-1.35,1.81-1.91,2.03-.56,.23-2.03-.23-1.46,.23,.56,.45,1.35,1.02,1.69,.68,.34-.34,2.48-2.59,2.48-2.59,0,0-.11,.11,0-.56,.11-.68,0-1.47,.56-1.13,.56,.34,.9,.79,1.13,.34,.23-.45,.45-.23-.11-.56-.56-.34-1.91-2.26-2.59-2.37-.68-.11-2.36-1.24-2.36-1.24,0,0-.34-.34-1.12-1.24-.79-.9-1.01-.68-1.24-1.47-.22-.79-.9-1.8,.34-1.58s2.03,1.01,3.15,1.69,.9,.9,1.91,1.58,1.13,1.35,1.91,1.24c.79-.11,1.69,.45,1.69,1.47s.22,2.14,.45,2.37c.23,.23,.9,.68,1.13,1.13,.23,.45,.68,1.58,1.01,2.03,.34,.45,.68,.79,1.01,1.35,.34,.56,.45-.11,.79,.11,.34,.23,.79,.11,.79-.34s.11-1.24,.11-1.24c0,0,1.58-.45,1.13-.68-.45-.23-1.8-1.58-1.69-2.03,.11-.45,0-1.35,.56-1.24,.56,.11,1.13,1.13,2.36,.23s2.7-1.35,2.25,0c-.45,1.35,.11,1.58,0,3.05-.11,1.47,.45,1.02,1.24,1.81,.79,.79,1.35,.9,1.91,1.13,.56,.23,1.46,.11,2.36,.23,.9,.11,1.46-.34,2.25-.11,.79,.23,2.59-.11,2.93,.11,.34,.23,1.69-.45,1.8,.34,.11,.79,.56-.11,.23,1.69s-.79,3.05-.79,3.05c-1.24,2.37-1.69,2.93-2.25,3.05-.56,.11-.9,.45-1.91,.34-1.01-.11-2.25,0-3.71-.34-1.46-.34-4.16,.34-5.29-.34-1.13-.68-2.7-.11-3.38-.9-.68-.79-1.8-.68-2.25-1.13-.45-.45-.68-1.69-.68,.11s-1.01,1.92-1.24,2.82c-.23,.9,.34,.45-.9,.34-1.24-.11-1.58,.56-3.38-.79-1.8-1.35-2.7-1.35-3.6-1.92-.9-.56-1.8,1.01-2.7-.79-.9-1.81-2.14-.34-2.25-1.81-.11-1.47,0-1.35,.11-2.26,.11-.9,1.35-1.69,.79-2.03-.56-.34-.11-.9-.9-.56-.79,.34-1.91,.45-2.81,.79-.9,.34,2.03,0-2.36,.34-4.39,.34-5.63,.79-5.63,.79,0,0-.34-.23-.9,.23-.56,.45-1.35,1.13-2.14,.79-.79-.34-1.24-.23-1.91-.11-.68,.11-1.12-.56-1.91,0-.79,.56-1.69,.79-2.03,.56-.35-.23-.91-1.13-.91-1.13h.01l-1.69,2.26-1.12,1.13-2.25,1.24-.34,1.02s-.9,.9-.79,1.47,.11,1.58,.11,1.58c0,0-1.58,1.47-2.25,1.92-.68,.45-1.58,1.47-1.58,1.47,0,0-.56,.68-.9,.9-.34,.23-.9,.9-1.35,1.58s-.9,1.13-1.13,1.47-.9,1.13-1.24,2.37c-.34,1.24-1.24,2.71-1.24,2.71l-.23,.56c.11,1.92,.11,2.26,.34,2.93,.23,.68,.45,.45,.23,1.92-.23,1.47-.23,2.03-.45,2.71-.23,.68-.9,1.92-1.12,2.48-.23,.56,.45,1.58,.45,1.58,0,0,.34,1.47,.11,1.81-.23,.34,.11,1.02,.11,1.02,0,0,1.35,.79,1.8,1.24s1.24,1.13,1.35,1.47c.11,.34,1.01,1.92,1.13,2.26s1.01,1.58,1.24,1.92c.23,.34,1.35,1.58,1.35,1.58,0,0,1.46,1.13,1.8,1.58,.34,.45,1.35,.68,1.69,1.01,.34,.34,1.13,.23,1.58,.56,.45,.34,1.35-.23,1.8,0,.45,.23,1.69-.23,2.03-.45s1.12-1.01,1.69-.68c.56,.34,.9,0,1.35,.11,.45,.11,1.12-.45,1.57-.45s1.58-.45,1.91-.45,1.46-.68,1.91-.68,1.01-.45,1.57-.23,.34-.45,1.35-.11,1.35,0,1.69,.34c.34,.34,.79,0,1.13,.45,.34,.45,.9,.79,1.01,1.24,.11,.45,.79,.9,.79,.9l.68,.11s.9-.68,1.13-.23c.23,.45,1.24,.34,1.24,.34l1.01,1.13,.34,.45s.68,1.81,.56,2.48c-.11,.68-.11,2.14-.45,2.48-.34,.34-.56,1.81-.56,1.81,0,0-.45,.45,.56,1.35,1.01,.9,1.69,1.69,2.03,2.14,.34,.45,1.24,1.69,1.35,2.48,.11,.79,.34,1.24,.79,2.26,.45,1.02,1.01,1.13,1.12,2.26,.11,1.13,.34,1.13,.23,1.92-.11,.79-.45,.9-.11,1.47,.34,.56,.79,1.58,.68,1.92-.11,.34-.34,1.8-.34,1.8l-.23,.68-1.01,1.92-.68,1.01c-.23,.79-.68,1.58-.56,2.71,.11,1.13-.56,1.13,.34,2.26,.9,1.13,1.35,2.37,1.91,3.38,.56,1.01,.9,2.03,1.01,2.71,.11,.68,.56,.9,.79,1.81,.22,.9,.34,1.35,.34,1.92s-.11,2.03,.11,2.37c.22,.34,.34,1.35,.45,1.81,.11,.45-.34,.56,.34,1.35,.68,.79,1.13,1.24,1.58,1.8s.34,.34,.68,1.13c.34,.79,.79,1.24,.9,1.92,.11,.68,.22,2.37,.56,3.16,.34,.79,.79,1.58,.79,1.58,0,0,1.24,.79,1.69,.68,.45-.11,1.35-1.13,2.03-.79,.68,.34,1.24,0,1.8,0s1.13-.68,1.69-.68,1.35-.9,1.8-.68c.45,.23,1.01-.23,1.57-.79,.56-.56,.9-1.01,1.91-1.92,1.01-.9,.9-.9,1.58-1.47,.68-.56,1.35-1.81,2.14-2.03s1.01-1.01,1.24-1.58c.23-.56,.34-.9,.68-1.35,.34-.45,.11,.11,.68-1.35,.56-1.47,1.24-2.03,1.8-2.37,.56-.34,.9-1.01,1.24-1.13s.9,.34,.68-.68c-.22-1.01,0-2.48-.22-2.82-.23-.34-.56,.79-.45-.9,.11-1.69,1.35-3.38,1.35-3.38,0,0,1.69-2.14,2.25-2.48s.68-.68,1.46-1.13c.79-.45,2.48-1.58,2.48-2.14s.68-2.03,.68-2.37,0-.68-.22-2.59c-.23-1.92,.22-1.47-.45-3.27s-.79-4.06-1.24-4.62c-.45-.56-.23-2.03-.23-2.48s.79-1.58,1.13-2.03c.34-.45,1.8-2.26,1.8-2.26,0,0,2.25-2.59,3.04-3.83,.79-1.24,1.58-2.37,2.14-2.82,.56-.45,1.91-1.47,2.7-2.6,.79-1.13,2.36-3.27,2.48-3.61,.11-.34,1.01-1.47,1.01-1.47,0,0,1.24-1.47,1.46-2.26,.22-.79,1.35-5.19,1.12-4.96-.22,.23-1.57,.45-2.03,.56-.45,.11,.68,.56-2.59,.34-3.26-.23-4.95,.34-4.95,.34-1.01-.23-1.8,.9-2.14-.68-.34-1.58-.56-2.48-1.24-3.61-.68-1.13-1.13-1.58-2.14-3.05-1.01-1.47-.9-.79-1.8-1.92-.9-1.13-1.13-.79-1.69-2.26-.56-1.47-1.01-.9-1.69-2.93-.68-2.03-1.13-2.26-1.46-3.38-.34-1.13-.79-1.47-1.01-2.48-.23-1.02-2.81-6.2-3.15-6.54-.34-.34-.9-2.14-.79-1.8,.11,.34,1.69,1.47,1.69,1.47,0,0,.9-.34,1.24-.34s1.69,1.24,1.69,1.69,2.36,2.6,2.93,4.17c.56,1.58,1.24,2.71,1.35,3.16s1.24,2.26,1.69,2.93c.45,.68,1.91,2.03,2.14,2.71s2.36,2.93,2.36,4.4,1.01,3.38,1.12,3.83,2.14,1.02,2.14,1.02l2.7-.68s4.05-2.6,4.5-2.6,4.05-1.69,4.05-1.69c0,0,1.46-1.35,2.48-2.14,1.01-.79,2.14-2.26,2.36-2.93,.22-.68,.67-.79,1.58-1.81,.9-1.02,2.14-2.03,1.35-2.71-.79-.68-1.24-.45-2.36-1.58-1.13-1.13-1.01-.9-1.8-2.37-.79-1.47,.11-3.16-1.58-1.47-1.69,1.69-1.01,2.14-2.7,2.48-1.69,.34-2.36,1.47-3.15,.34s-1.57-.45-2.03-2.14c-.45-1.69-.79-1.81-.9-2.48-.11-.68,0-.68-.9-2.37-.9-1.69-.23-4.29,.34-2.82,.56,1.47,1.46,1.69,2.93,2.71,1.46,1.01,2.14,1.81,3.49,1.92,1.35,.11,2.48,0,2.7,.23,.23,.23,.45-.11,1.01,.11,.56,.23,.79-.34,1.01,.56,.23,.9,1.46,1.02,2.03,1.58,.56,.56,.56,.34,2.03,.56,1.46,.23,3.49,.23,3.49,.23l2.14-.11,2.48,.23s1.8,1.02,2.25,1.02,.56,1.24,1.69,1.92c1.13,.68,1.35,.79,2.03,1.58,.68,.79,.56,1.13,1.46,1.92,.9,.79,2.36-.11,2.59-.45,.22-.34,1.35-.9,1.13,0-.23,.9,1.12,.56,.79,2.71-.34,2.14,1,3.65,1,3.65" fill="#ccc"/><path id="i" d="M229.13,200.63c-.34,1.24-1.58,3.05-1.58,3.05l-2.25,1.13s-.79,.68-1.24,.79c-.45,.11-1.58,.68-1.58,.68,0,0-1.01-.23-.68,.79,.34,1.02,.45,2.26,.34,2.59-.11,.34-.11,1.02-.11,1.92s-.34,2.03-.9,2.26c-.56,.23-1.13,.45-1.01,1.24,.11,.79,.11,3.16,.11,3.16l1.46,2.26s.45-.34,1.35-.34,1.8-.79,1.8-.79c0,0,1.01,.22,.9-1.02-.11-1.24,.45-2.71,.34-3.05-.11-.34,1.01-1.81,1.01-2.14s1.13-1.92,1.13-2.48,.79-1.47,.9-2.14c.11-.68,.23-2.26,.45-2.71,.23-.45,.34-.9,.34-1.35v-1.35l-.8-2.49h.01Z" fill="#ccc"/></g></g></g></g></g></g></svg>